<svg xmlns="http://www.w3.org/2000/svg" xmlns:xlink="http://www.w3.org/1999/xlink" viewBox="0 0 62.16 71.52"><defs><style>.cls-1{fill:url(#linear-gradient);}.cls-2{fill:url(#linear-gradient-2);}</style><linearGradient id="linear-gradient" x1="-1.13" y1="3.75" x2="69.3" y2="54.35" gradientUnits="userSpaceOnUse"><stop offset="0" stop-color="#ff006a"/><stop offset="0.11" stop-color="#f20673"/><stop offset="0.31" stop-color="#d1168a"/><stop offset="0.58" stop-color="#9c2faf"/><stop offset="0.59" stop-color="#9930b1"/><stop offset="0.92" stop-color="#5e4bd9"/><stop offset="1" stop-color="#5052e3"/></linearGradient><linearGradient id="linear-gradient-2" x1="-3.74" y1="7.38" x2="66.69" y2="57.98" xlink:href="#linear-gradient"/></defs><g id="Layer_2" data-name="Layer 2"><g id="Layer_1-2" data-name="Layer 1"><path class="cls-1" d="M35.76,21.45a14.24,14.24,0,0,1,9.72,3.82l.76.76.08.08h0l.37.37,8.14-8.14.73-.67a26.82,26.82,0,0,0-33.17-5.16,3.15,3.15,0,0,0-1.3-.27,3.21,3.21,0,1,0,3.21,3.29,23.28,23.28,0,0,1,26.1,2.18l-3.82,3.82A17.88,17.88,0,1,0,49,47.81L46.32,45.4A14.31,14.31,0,1,1,35.76,21.45Z"/><path class="cls-2" d="M53.27,51.05l-2.2,2.19A23.25,23.25,0,0,1,24.29,56a1.93,1.93,0,0,0,0-.24A3.21,3.21,0,1,0,21.09,59a3.43,3.43,0,0,0,1-.14,26.79,26.79,0,0,0,31.2-2.73l3.8,3.81A32.19,32.19,0,0,1,9,17.91l3.89,3.89a26.86,26.86,0,0,0-1,26.05,3.28,3.28,0,0,0-.35,1.47A3.21,3.21,0,1,0,15,46.12a23.28,23.28,0,0,1,2.52-24.71l0,0,0,0L11.14,15a32.18,32.18,0,0,1,48.38-1l2.64-2.42a35.77,35.77,0,1,0,0,48.23l-.79-.72Z"/></g></g></svg>